<?xml version="1.0" standalone="no"?>
<!DOCTYPE svg PUBLIC "-//W3C//DTD SVG 20010904//EN"
 "http://www.w3.org/TR/2001/REC-SVG-20010904/DTD/svg10.dtd">
<svg version="1.0" xmlns="http://www.w3.org/2000/svg"
 width="292.000000pt" height="292.000000pt" viewBox="0 0 292.000000 292.000000"
 preserveAspectRatio="xMidYMid meet">
<metadata>
Created by potrace 1.11, written by Peter Selinger 2001-2013
</metadata>
<g transform="translate(0.000000,292.000000) scale(0.100000,-0.100000)"
fill="#000000" stroke="none">
<path d="M1408 2615 c-2 -2 -30 -4 -63 -6 -91 -4 -267 -54 -382 -109 -336
-160 -571 -447 -647 -790 -20 -88 -27 -272 -15 -385 32 -310 230 -621 508
-800 154 -99 318 -162 506 -193 22 -4 105 -6 185 -6 264 0 483 68 699 217 92
63 220 189 283 277 92 129 175 328 192 460 50 394 -54 720 -315 981 -178 179
-434 309 -676 344 -48 7 -270 15 -275 10z"/>
</g>
</svg>
